<mxfile host="app.diagrams.net" modified="2022-10-27T06:00:29.883Z" agent="5.0 (Windows NT 10.0; Win64; x64) AppleWebKit/537.36 (KHTML, like Gecko) Chrome/106.0.0.0 Safari/537.36" etag="ES9b28NiRLWDCzTePI6y" version="20.5.1" type="github" pages="2">
  <diagram id="0C8uGVvhPufoKVmoKiG1" name="PA">
    <mxGraphModel dx="1038" dy="1673" grid="1" gridSize="10" guides="1" tooltips="1" connect="1" arrows="1" fold="1" page="1" pageScale="1" pageWidth="850" pageHeight="1100" math="0" shadow="0">
      <root>
        <mxCell id="0" />
        <mxCell id="1" parent="0" />
        <mxCell id="UIgXjTR5e7-DOR3ebjsX-5" value="" style="endArrow=none;dashed=1;html=1;dashPattern=1 3;strokeWidth=2;rounded=0;" edge="1" parent="1">
          <mxGeometry width="50" height="50" relative="1" as="geometry">
            <mxPoint x="200" y="972.3999633789062" as="sourcePoint" />
            <mxPoint x="200" y="20" as="targetPoint" />
          </mxGeometry>
        </mxCell>
        <mxCell id="UIgXjTR5e7-DOR3ebjsX-6" value="create order" style="rounded=0;whiteSpace=wrap;html=1;" vertex="1" parent="1">
          <mxGeometry x="240" y="100" width="120" height="40" as="geometry" />
        </mxCell>
        <mxCell id="UIgXjTR5e7-DOR3ebjsX-8" value="Shipment" style="rounded=1;whiteSpace=wrap;html=1;" vertex="1" parent="1">
          <mxGeometry x="440" y="10" width="120" height="40" as="geometry" />
        </mxCell>
        <mxCell id="UIgXjTR5e7-DOR3ebjsX-9" value="" style="endArrow=classic;html=1;rounded=0;entryX=0;entryY=0.5;entryDx=0;entryDy=0;" edge="1" parent="1" target="UIgXjTR5e7-DOR3ebjsX-6">
          <mxGeometry width="50" height="50" relative="1" as="geometry">
            <mxPoint x="40" y="120" as="sourcePoint" />
            <mxPoint x="120" y="160" as="targetPoint" />
          </mxGeometry>
        </mxCell>
        <mxCell id="UIgXjTR5e7-DOR3ebjsX-10" value="TreatmentOrder" style="rounded=1;whiteSpace=wrap;html=1;" vertex="1" parent="1">
          <mxGeometry x="240" y="10" width="120" height="40" as="geometry" />
        </mxCell>
        <mxCell id="UIgXjTR5e7-DOR3ebjsX-11" value="3a" style="text;html=1;resizable=0;autosize=1;align=center;verticalAlign=middle;points=[];fillColor=none;strokeColor=none;rounded=0;" vertex="1" parent="1">
          <mxGeometry x="100" y="85" width="40" height="30" as="geometry" />
        </mxCell>
        <mxCell id="UIgXjTR5e7-DOR3ebjsX-32" value="" style="edgeStyle=orthogonalEdgeStyle;rounded=0;orthogonalLoop=1;jettySize=auto;html=1;" edge="1" parent="1" source="UIgXjTR5e7-DOR3ebjsX-12" target="UIgXjTR5e7-DOR3ebjsX-31">
          <mxGeometry relative="1" as="geometry" />
        </mxCell>
        <mxCell id="UIgXjTR5e7-DOR3ebjsX-12" value="create BS shipment&lt;br&gt;(with shipment material)" style="rounded=0;whiteSpace=wrap;html=1;" vertex="1" parent="1">
          <mxGeometry x="440" y="160" width="120" height="40" as="geometry" />
        </mxCell>
        <mxCell id="UIgXjTR5e7-DOR3ebjsX-13" value="" style="endArrow=classic;html=1;rounded=0;entryX=0;entryY=0.5;entryDx=0;entryDy=0;" edge="1" parent="1" target="UIgXjTR5e7-DOR3ebjsX-12">
          <mxGeometry width="50" height="50" relative="1" as="geometry">
            <mxPoint x="40" y="179.5" as="sourcePoint" />
            <mxPoint x="240" y="179.5" as="targetPoint" />
          </mxGeometry>
        </mxCell>
        <mxCell id="UIgXjTR5e7-DOR3ebjsX-14" value="3b" style="text;html=1;resizable=0;autosize=1;align=center;verticalAlign=middle;points=[];fillColor=none;strokeColor=none;rounded=0;" vertex="1" parent="1">
          <mxGeometry x="100" y="150" width="40" height="30" as="geometry" />
        </mxCell>
        <mxCell id="UIgXjTR5e7-DOR3ebjsX-23" value="" style="edgeStyle=orthogonalEdgeStyle;rounded=0;orthogonalLoop=1;jettySize=auto;html=1;" edge="1" parent="1" source="UIgXjTR5e7-DOR3ebjsX-15" target="UIgXjTR5e7-DOR3ebjsX-20">
          <mxGeometry relative="1" as="geometry" />
        </mxCell>
        <mxCell id="UIgXjTR5e7-DOR3ebjsX-15" value="create FP shipment" style="rounded=0;whiteSpace=wrap;html=1;" vertex="1" parent="1">
          <mxGeometry x="440" y="350" width="120" height="40" as="geometry" />
        </mxCell>
        <mxCell id="UIgXjTR5e7-DOR3ebjsX-16" value="" style="endArrow=classic;html=1;rounded=0;entryX=0;entryY=0.5;entryDx=0;entryDy=0;" edge="1" parent="1">
          <mxGeometry width="50" height="50" relative="1" as="geometry">
            <mxPoint x="40" y="369.5" as="sourcePoint" />
            <mxPoint x="440" y="370" as="targetPoint" />
          </mxGeometry>
        </mxCell>
        <mxCell id="UIgXjTR5e7-DOR3ebjsX-17" value="3c" style="text;html=1;resizable=0;autosize=1;align=center;verticalAlign=middle;points=[];fillColor=none;strokeColor=none;rounded=0;" vertex="1" parent="1">
          <mxGeometry x="100" y="330" width="40" height="30" as="geometry" />
        </mxCell>
        <mxCell id="UIgXjTR5e7-DOR3ebjsX-20" value="create shipment material with each material_ID" style="rounded=1;whiteSpace=wrap;html=1;" vertex="1" parent="1">
          <mxGeometry x="440" y="420" width="120" height="50" as="geometry" />
        </mxCell>
        <mxCell id="UIgXjTR5e7-DOR3ebjsX-22" value="" style="endArrow=none;dashed=1;html=1;dashPattern=1 3;strokeWidth=2;rounded=0;" edge="1" parent="1">
          <mxGeometry width="50" height="50" relative="1" as="geometry">
            <mxPoint x="400" y="962.3999633789062" as="sourcePoint" />
            <mxPoint x="400" y="10" as="targetPoint" />
          </mxGeometry>
        </mxCell>
        <mxCell id="UIgXjTR5e7-DOR3ebjsX-24" value="" style="endArrow=none;dashed=1;html=1;dashPattern=1 3;strokeWidth=2;rounded=0;" edge="1" parent="1">
          <mxGeometry width="50" height="50" relative="1" as="geometry">
            <mxPoint x="600" y="952.3999633789062" as="sourcePoint" />
            <mxPoint x="600" as="targetPoint" />
          </mxGeometry>
        </mxCell>
        <mxCell id="UIgXjTR5e7-DOR3ebjsX-25" value="confirm flowversion" style="rounded=1;whiteSpace=wrap;html=1;" vertex="1" parent="1">
          <mxGeometry x="640" y="10" width="120" height="40" as="geometry" />
        </mxCell>
        <mxCell id="UIgXjTR5e7-DOR3ebjsX-26" value="" style="endArrow=none;dashed=1;html=1;dashPattern=1 3;strokeWidth=2;rounded=0;" edge="1" parent="1">
          <mxGeometry width="50" height="50" relative="1" as="geometry">
            <mxPoint x="800" y="962.3999633789062" as="sourcePoint" />
            <mxPoint x="800" as="targetPoint" />
          </mxGeometry>
        </mxCell>
        <mxCell id="UIgXjTR5e7-DOR3ebjsX-30" value="" style="edgeStyle=orthogonalEdgeStyle;rounded=0;orthogonalLoop=1;jettySize=auto;html=1;entryX=0.5;entryY=0;entryDx=0;entryDy=0;" edge="1" parent="1" source="UIgXjTR5e7-DOR3ebjsX-27" target="UIgXjTR5e7-DOR3ebjsX-28">
          <mxGeometry relative="1" as="geometry" />
        </mxCell>
        <mxCell id="UIgXjTR5e7-DOR3ebjsX-27" value="update&amp;nbsp;order&#39;s flowversion &amp;amp; flowconfirmBy" style="rounded=1;whiteSpace=wrap;html=1;" vertex="1" parent="1">
          <mxGeometry x="620" y="160" width="160" height="40" as="geometry" />
        </mxCell>
        <mxCell id="UIgXjTR5e7-DOR3ebjsX-33" value="" style="edgeStyle=orthogonalEdgeStyle;rounded=0;orthogonalLoop=1;jettySize=auto;html=1;" edge="1" parent="1" source="UIgXjTR5e7-DOR3ebjsX-28" target="UIgXjTR5e7-DOR3ebjsX-29">
          <mxGeometry relative="1" as="geometry" />
        </mxCell>
        <mxCell id="UIgXjTR5e7-DOR3ebjsX-28" value="update BS shipment flowStep" style="rounded=1;whiteSpace=wrap;html=1;" vertex="1" parent="1">
          <mxGeometry x="620" y="230" width="160" height="40" as="geometry" />
        </mxCell>
        <mxCell id="UIgXjTR5e7-DOR3ebjsX-36" value="" style="edgeStyle=orthogonalEdgeStyle;rounded=0;orthogonalLoop=1;jettySize=auto;html=1;" edge="1" parent="1" source="UIgXjTR5e7-DOR3ebjsX-29" target="UIgXjTR5e7-DOR3ebjsX-34">
          <mxGeometry relative="1" as="geometry" />
        </mxCell>
        <mxCell id="UIgXjTR5e7-DOR3ebjsX-29" value="update FS shipment flowStep" style="rounded=1;whiteSpace=wrap;html=1;" vertex="1" parent="1">
          <mxGeometry x="620" y="300" width="160" height="40" as="geometry" />
        </mxCell>
        <mxCell id="UIgXjTR5e7-DOR3ebjsX-31" value="create shipment material with&amp;nbsp; material_ID" style="rounded=1;whiteSpace=wrap;html=1;" vertex="1" parent="1">
          <mxGeometry x="440" y="230" width="120" height="50" as="geometry" />
        </mxCell>
        <mxCell id="UIgXjTR5e7-DOR3ebjsX-39" value="" style="edgeStyle=orthogonalEdgeStyle;rounded=0;orthogonalLoop=1;jettySize=auto;html=1;entryX=0;entryY=0.5;entryDx=0;entryDy=0;" edge="1" parent="1" source="UIgXjTR5e7-DOR3ebjsX-34" target="UIgXjTR5e7-DOR3ebjsX-40">
          <mxGeometry relative="1" as="geometry">
            <mxPoint x="840" y="390" as="targetPoint" />
          </mxGeometry>
        </mxCell>
        <mxCell id="UIgXjTR5e7-DOR3ebjsX-34" value="create new PA" style="rounded=1;whiteSpace=wrap;html=1;" vertex="1" parent="1">
          <mxGeometry x="620" y="370" width="160" height="40" as="geometry" />
        </mxCell>
        <mxCell id="UIgXjTR5e7-DOR3ebjsX-35" value="Processing Activity" style="rounded=1;whiteSpace=wrap;html=1;" vertex="1" parent="1">
          <mxGeometry x="840" y="10" width="120" height="40" as="geometry" />
        </mxCell>
        <mxCell id="UIgXjTR5e7-DOR3ebjsX-38" value="create new PA" style="rounded=0;whiteSpace=wrap;html=1;" vertex="1" parent="1">
          <mxGeometry x="240" y="510" width="120" height="40" as="geometry" />
        </mxCell>
        <mxCell id="UIgXjTR5e7-DOR3ebjsX-40" value="validate" style="rhombus;whiteSpace=wrap;html=1;" vertex="1" parent="1">
          <mxGeometry x="870" y="350" width="80" height="80" as="geometry" />
        </mxCell>
        <mxCell id="UIgXjTR5e7-DOR3ebjsX-41" value="order flowconfirmBy is not null" style="rounded=1;whiteSpace=wrap;html=1;" vertex="1" parent="1">
          <mxGeometry x="1020" y="370" width="160" height="40" as="geometry" />
        </mxCell>
        <mxCell id="UIgXjTR5e7-DOR3ebjsX-42" value="Find PA flow Step" style="rounded=0;whiteSpace=wrap;html=1;" vertex="1" parent="1">
          <mxGeometry x="850" y="470" width="120" height="40" as="geometry" />
        </mxCell>
        <mxCell id="UIgXjTR5e7-DOR3ebjsX-43" value="get all flowSctionTypes by flowversion" style="rounded=0;whiteSpace=wrap;html=1;" vertex="1" parent="1">
          <mxGeometry x="1020" y="460" width="160" height="40" as="geometry" />
        </mxCell>
        <mxCell id="UIgXjTR5e7-DOR3ebjsX-44" value="Only one Type&#39;s ProcessOrder require is true" style="rhombus;whiteSpace=wrap;html=1;" vertex="1" parent="1">
          <mxGeometry x="1050" y="550" width="100" height="80" as="geometry" />
        </mxCell>
      </root>
    </mxGraphModel>
  </diagram>
  <diagram id="UnSyTn6QOe6M9fcLFlyM" name="Page-2">
    <mxGraphModel dx="1038" dy="539" grid="1" gridSize="10" guides="1" tooltips="1" connect="1" arrows="1" fold="1" page="1" pageScale="1" pageWidth="850" pageHeight="1100" math="0" shadow="0">
      <root>
        <mxCell id="0" />
        <mxCell id="1" parent="0" />
      </root>
    </mxGraphModel>
  </diagram>
</mxfile>
